<mxfile host="app.diagrams.net" modified="2024-05-06T06:35:04.930Z" agent="Mozilla/5.0 (Windows NT 10.0; Win64; x64) AppleWebKit/537.36 (KHTML, like Gecko) Chrome/124.0.0.0 Safari/537.36" version="24.2.2" etag="iOtz923rii_OOkXmQg8Z" type="github">
  <diagram name="Page-1" id="kPnwHjeOIBhgm0njTlxM">
    <mxGraphModel>
      <root>
        <mxCell id="0" />
        <mxCell id="1" parent="0" />
      </root>
    </mxGraphModel>
  </diagram>
</mxfile>
